<svg xmlns="http://www.w3.org/2000/svg" viewBox="0 0 72 72" data-notux-normalized="true"><svg x="8.162199999999999" y="7.826149999999998" width="55.6756" height="56.3477" version="1.1" xmlns="http://www.w3.org/2000/svg" xmlns:xlink="http://www.w3.org/1999/xlink" viewBox="0 0 55.6756 56.3477">
 <defs>
  <linearGradient id="gradient1" x1="5" x2="5" y2="52.8175" gradientUnits="userSpaceOnUse">
   <stop offset="0" stop-color="#ffcc00" stop-opacity="1"/>
   <stop offset="1" stop-color="#e2b500" stop-opacity="1"/>
  </linearGradient>
 </defs>
 <g>
  <rect height="56.3477" opacity="0" width="55.6756" x="0" y="0"/>
  <path d="M10.6014 52.4219C11.5194 53.1055 12.6718 52.8906 14.0585 51.875L27.6522 41.9141L41.2264 51.875C42.6327 52.8906 43.7655 53.1055 44.703 52.4219C45.6014 51.7383 45.8163 50.6055 45.2499 48.9648L39.9179 32.9883L53.6093 23.1445C55.0155 22.1484 55.5429 21.1133 55.1913 20.0195C54.8397 18.9453 53.8046 18.3984 52.0663 18.418L35.2499 18.5156L30.1327 2.46094C29.5858 0.820312 28.785 0 27.6522 0C26.4999 0 25.6991 0.820312 25.1718 2.46094L20.035 18.5156L3.21863 18.418C1.48035 18.3984 0.464729 18.9453 0.113166 20.0195C-0.257928 21.1133 0.288947 22.1484 1.67567 23.1445L15.3671 32.9883L10.035 48.9648C9.48817 50.6055 9.70301 51.7383 10.6014 52.4219ZM13.6483 48.2422C13.5897 48.1836 13.6093 48.1445 13.6483 47.9883L18.7655 33.0469C19.078 32.1484 18.9022 31.4258 18.1014 30.8789L5.15223 21.8359C5.01551 21.7578 4.95692 21.6992 4.99598 21.6211C5.03504 21.543 5.09363 21.543 5.26942 21.543L21.0507 21.7578C21.9882 21.7773 22.5936 21.3867 22.8866 20.4688L27.4764 5.37109C27.535 5.19531 27.5741 5.13672 27.6522 5.13672C27.7304 5.13672 27.7694 5.19531 27.8085 5.37109L32.3983 20.4688C32.6913 21.3867 33.2968 21.7773 34.2343 21.7578L50.035 21.543C50.1913 21.543 50.2694 21.543 50.2889 21.6211C50.328 21.6992 50.2694 21.7578 50.1327 21.8359L37.203 30.8789C36.3827 31.4258 36.2069 32.1484 36.5194 33.0469L41.6366 47.9883C41.6757 48.1445 41.7147 48.1836 41.6561 48.2422C41.5975 48.3203 41.5194 48.2617 41.3827 48.1836L28.8046 38.6523C28.0624 38.0859 27.2225 38.0859 26.4999 38.6523L13.9022 48.1836C13.785 48.2617 13.7069 48.3203 13.6483 48.2422Z" fill="url(#gradient1)"/>
 </g>
</svg>
</svg>