<svg xmlns="http://www.w3.org/2000/svg" viewBox="0 0 72 72" data-notux-normalized="true"><svg x="7.21095" y="17.37695" width="57.5781" height="37.2461" version="1.1" xmlns="http://www.w3.org/2000/svg" xmlns:xlink="http://www.w3.org/1999/xlink" viewBox="0 0 57.5781 37.2461">
 <defs>
  <linearGradient id="gradient1" x1="5" x2="5" y2="37.207" gradientUnits="userSpaceOnUse">
   <stop offset="0" stop-color="rgba(50,50,50,0.85)" stop-opacity="1"/>
   <stop offset="1" stop-color="rgba(0,0,0,0.85)" stop-opacity="1"/>
  </linearGradient>
  <linearGradient id="gradient2" x1="5" x2="5" y2="37.207" gradientUnits="userSpaceOnUse">
   <stop offset="0" stop-color="rgba(50,50,50,0.85)" stop-opacity="1"/>
   <stop offset="1" stop-color="rgba(0,0,0,0.85)" stop-opacity="1"/>
  </linearGradient>
 </defs>
 <g>
  <rect height="37.2461" opacity="0" width="57.5781" x="0" y="0"/>
  <path d="M44.2383 37.1875C48.3398 37.1875 52.1094 34.9414 53.6133 31.543L53.6914 31.543L53.6914 35.4297C53.6914 36.5039 54.4141 37.207 55.4492 37.207C56.4844 37.207 57.207 36.5039 57.207 35.332L57.207 18.2617C57.207 12.7148 53.2617 9.16016 46.9531 9.16016C42.0898 9.16016 38.2617 11.3281 36.8359 14.7461C36.6016 15.3516 36.4062 15.9375 36.4062 16.4453C36.4062 17.4023 37.1289 18.0078 38.0469 18.0078C38.75 18.0078 39.2578 17.7344 39.5703 17.1094C40.8594 13.9258 43.2227 12.2852 46.8555 12.2852C51.0742 12.2852 53.5742 14.7266 53.5742 18.5547L53.5742 20.7812L45.0586 21.2891C38.6719 21.6602 35.1953 24.5898 35.1953 29.2383C35.1953 34.0039 38.9062 37.1875 44.2383 37.1875ZM45.0586 34.1797C41.4258 34.1797 38.9062 32.1289 38.9062 29.1406C38.9062 26.2695 41.1719 24.3555 45.5273 24.0625L53.5742 23.4961L53.5742 26.582C53.5742 30.8008 49.7656 34.1797 45.0586 34.1797Z" fill="url(#gradient1)"/>
  <path d="M1.81641 37.1875C2.91016 37.1875 3.47656 36.7578 3.88672 35.5859L15.0977 4.84375L15.2344 4.84375L26.4453 35.5859C26.8555 36.7578 27.4219 37.1875 28.5156 37.1875C29.6484 37.1875 30.3711 36.5234 30.3711 35.4297C30.3711 35.0781 30.293 34.7266 30.1367 34.2773L17.8711 1.95312C17.3828 0.664062 16.5234 0 15.1758 0C13.8477 0 12.9688 0.644531 12.5195 1.93359L0.234375 34.2969C0.078125 34.7461 0 35.0977 0 35.4492C0 36.543 0.683594 37.1875 1.81641 37.1875ZM7.05078 25.8789L23.3203 25.8789C24.1992 25.8789 24.9219 25.1758 24.9219 24.2773C24.9219 23.3789 24.1992 22.6758 23.3203 22.6758L7.05078 22.6758C6.17188 22.6758 5.44922 23.3789 5.44922 24.2773C5.44922 25.1758 6.17188 25.8789 7.05078 25.8789Z" fill="url(#gradient2)"/>
 </g>
</svg>
</svg>